<?xml version="1.0" standalone="no"?>
<!DOCTYPE svg PUBLIC "-//W3C//DTD SVG 20010904//EN"
 "http://www.w3.org/TR/2001/REC-SVG-20010904/DTD/svg10.dtd">
<svg version="1.0" xmlns="http://www.w3.org/2000/svg"
 width="352.000000pt" height="352.000000pt" viewBox="0 0 352.000000 352.000000"
 preserveAspectRatio="xMidYMid meet">
<metadata>
Created by potrace 1.14, written by Peter Selinger 2001-2017
</metadata>
<g transform="translate(0.000000,352.000000) scale(0.100000,-0.100000)"
fill="#000000" stroke="none">
<path d="M1740 3496 c-32 -22 -120 -78 -303 -196 -37 -23 -64 -46 -60 -50 4
-4 46 -40 93 -80 47 -39 139 -122 204 -183 66 -62 124 -111 129 -109 54 16
497 410 497 441 0 6 -288 122 -335 135 -5 2 -23 8 -38 14 -16 7 -32 12 -37 12
-4 0 -27 9 -51 20 -56 25 -57 25 -99 -4z"/>
<path d="M2465 3402 c-40 -64 -160 -205 -231 -273 -80 -75 -233 -202 -324
-268 -41 -30 -77 -56 -80 -58 -2 -2 0 -10 5 -17 122 -171 297 -448 415 -661
128 -229 244 -510 285 -690 7 -29 7 -29 31 30 97 236 179 534 199 720 3 33 8
74 10 90 6 40 6 294 1 325 -3 14 -7 49 -10 79 -16 135 -64 322 -125 478 -41
106 -131 293 -140 293 -3 0 -19 -21 -36 -48z"/>
<path d="M953 3303 c-147 -232 -214 -502 -207 -838 1 -99 6 -198 9 -220 84
-532 325 -948 656 -1129 118 -64 208 -88 344 -89 142 -2 177 3 294 42 129 43
256 115 388 219 l51 41 -13 38 c-133 386 -318 762 -526 1068 -214 316 -541
656 -852 887 -43 32 -82 58 -87 58 -4 0 -30 -35 -57 -77z"/>
<path d="M3184 1747 c-156 -236 -348 -416 -719 -676 -192 -136 -303 -231 -347
-300 -15 -25 -28 -48 -28 -52 0 -4 29 -21 66 -38 227 -106 448 -337 531 -554
l30 -78 16 25 c10 14 17 27 17 29 0 2 28 53 61 113 185 329 334 678 399 932
45 176 63 432 39 557 -5 28 -11 61 -14 74 -2 13 -5 25 -7 26 -2 2 -21 -24 -44
-58z"/>
<path d="M290 1783 c-1 -18 -3 -39 -20 -158 -9 -65 -6 -448 4 -505 37 -202 72
-321 128 -435 133 -266 344 -433 648 -515 49 -13 54 -14 120 -25 25 -4 54 -9
64 -11 60 -11 208 -20 471 -29 292 -9 553 -27 605 -40 8 -2 35 -7 60 -10 42
-6 181 -35 243 -50 l29 -8 -32 64 c-85 171 -181 282 -324 378 -128 86 -158
101 -571 283 -455 201 -703 319 -853 407 -248 145 -475 402 -546 619 -18 54
-26 64 -26 35z"/>
</g>
</svg>
